<svg width="40" height="40" viewBox="0 0 40 40" fill="none" xmlns="http://www.w3.org/2000/svg">
<path opacity="0.3" fill-rule="evenodd" clip-rule="evenodd" d="M19.36 27.2C17.5043 27.2 16 28.7043 16 30.56V35.68C16 36.2985 16.5014 36.8 17.12 36.8H22.88C23.4986 36.8 24 36.2985 24 35.68V30.56C24 28.7043 22.4957 27.2 20.64 27.2H19.36Z" fill="#1565D8"/>
<path fill-rule="evenodd" clip-rule="evenodd" d="M25.6002 35.8117V30.5411C25.6002 27.8122 23.1056 25.6 20.3767 25.6H19.6237C16.8948 25.6 14.4002 27.8122 14.4002 30.5411V35.8117C14.4002 36.1582 14.4596 36.4909 14.5689 36.7999H12.0943C9.36539 36.7999 7.15315 34.5877 7.15315 31.8588V16.7425L4.8392 18.7672C4.42845 19.1266 3.80412 19.085 3.44472 18.6742C3.08532 18.2635 3.12694 17.6392 3.53769 17.2798L19.3494 3.44446C19.722 3.11845 20.2784 3.11845 20.651 3.44446L36.4627 17.2798C36.8735 17.6392 36.9151 18.2635 36.5557 18.6742C36.1963 19.085 35.5719 19.1266 35.1612 18.7672L32.8472 16.7425V31.8588C32.8472 34.5877 30.635 36.7999 27.9061 36.7999H25.4315C25.5407 36.4909 25.6002 36.1582 25.6002 35.8117Z" fill="#1565D8"/>
</svg>
