<svg width="24" height="22" viewBox="0 0 24 22" fill="none" xmlns="http://www.w3.org/2000/svg">
<path opacity="0.3" fill-rule="evenodd" clip-rule="evenodd" d="M17.9475 1.45776H16.6001V1.1776C16.6001 0.714163 16.2241 0.338348 15.7601 0.338348C15.2961 0.338348 14.9201 0.714163 14.9201 1.1776V1.45776H14.6557C13.5732 1.45776 12.6957 2.33475 12.6957 3.41642V3.97697C12.6957 5.05864 13.5732 5.93563 14.6557 5.93563H16.8801C17.0347 5.93563 17.1601 6.061 17.1601 6.21579V6.77465C17.1601 6.92945 17.0347 7.05481 16.8801 7.05481H14.3099C14.1856 6.76038 13.8981 6.55233 13.5612 6.54209C13.0975 6.52799 12.7102 6.89222 12.6961 7.35545L12.6805 7.86856C12.6661 8.34177 13.0461 8.73331 13.5201 8.73331H14.9201V9.00367C14.9201 9.4671 15.2961 9.84292 15.7601 9.84292C16.2241 9.84292 16.6001 9.4671 16.6001 9.00367V8.73331H16.8801C17.9626 8.73331 18.8401 7.85632 18.8401 6.77465V6.21579C18.8401 5.13412 17.9626 4.25713 16.8801 4.25713H14.6557C14.5011 4.25713 14.3757 4.13177 14.3757 3.97697V3.41642C14.3757 3.26162 14.5011 3.13626 14.6557 3.13626H17.2175C17.3635 3.39208 17.6386 3.56 17.9475 3.56C18.4115 3.56 18.7875 3.18419 18.7875 2.72075V2.29701C18.7875 1.83357 18.4115 1.45776 17.9475 1.45776ZM0.84 9.67728H1.12V20.3H0.84C0.376081 20.3 0 20.6755 0 21.1387C0 21.6018 0.376081 21.9773 0.84 21.9773H1.96C2.42392 21.9773 2.8 21.6018 2.8 21.1387V8.83864C2.8 8.37547 2.42392 8 1.96 8H0.84C0.376081 8 0 8.37547 0 8.83864C0 9.30181 0.376081 9.67728 0.84 9.67728Z" fill="#1565D8"/>
<path fill-rule="evenodd" clip-rule="evenodd" d="M12.4038 13.1152C13.1004 11.6042 12.4584 10.3593 10.6849 9.58821L7.74671 8.37698C6.79481 7.98461 5.70413 8.14631 4.90729 8.79794L2.20517 11.0077L2.12659 11.7944L2 18.2293V19.3475H5.26927L11.9368 21.2389C12.778 21.4775 13.6824 21.3096 14.3815 20.7849C18.7747 17.4881 21.7101 15.2619 22.1547 14.8492C23.2323 13.8488 23.6566 12.7365 22.8887 11.6401C22.2681 10.7538 21.2213 10.6593 19.924 11.2457L13.6141 14.4496L11.8399 13.8863C12.0686 13.6894 12.2573 13.4329 12.4038 13.1152Z" fill="#1565D8"/>
</svg>
