<svg width="40" height="40" viewBox="0 0 40 40" fill="none" xmlns="http://www.w3.org/2000/svg">
<path fill-rule="evenodd" clip-rule="evenodd" d="M24.0569 28.8H15.9435C15.5553 26.0862 13.2214 24 10.4002 24C7.61789 24 5.3095 26.0291 4.87406 28.6882C3.90352 28.3805 3.2002 27.4724 3.2002 26.4V20.3777C3.2002 18.8626 4.0562 17.4776 5.41134 16.8L6.65857 16H28.4531L33.5847 17.101C34.8148 17.3471 35.8182 18.1419 36.3607 19.2H34.4002C33.0747 19.2 32.0002 20.2745 32.0002 21.6C32.0002 22.9255 33.0747 24 34.4002 24H36.8002V26.4C36.8002 27.4724 36.0969 28.3805 35.1263 28.6882C34.6909 26.0291 32.3825 24 29.6002 24C26.779 24 24.4451 26.0862 24.0569 28.8V28.8ZM27.4931 14.4H17.6002V8H21.3884C22.7934 8 24.0955 8.7372 24.8184 9.94202L27.4931 14.4ZM7.29857 14.4L8.85279 10.5144C9.46025 8.9958 10.9311 8 12.5667 8H16.0002V14.4H7.29857ZM36.8002 21.0234V22.4H34.4002C33.9584 22.4 33.6002 22.0418 33.6002 21.6C33.6002 21.1582 33.9584 20.8 34.4002 20.8H36.794C36.7981 20.874 36.8002 20.9485 36.8002 21.0234ZM20.0002 20.8H21.6002C22.042 20.8 22.4002 20.4418 22.4002 20C22.4002 19.5582 22.042 19.2 21.6002 19.2H20.0002C19.5584 19.2 19.2002 19.5582 19.2002 20C19.2002 20.4418 19.5584 20.8 20.0002 20.8Z" fill="#1565D8"/>
<path opacity="0.3" fill-rule="evenodd" clip-rule="evenodd" d="M29.5996 33.6C27.3905 33.6 25.5996 31.8091 25.5996 29.6C25.5996 27.3908 27.3905 25.6 29.5996 25.6C31.8087 25.6 33.5996 27.3908 33.5996 29.6C33.5996 31.8091 31.8087 33.6 29.5996 33.6Z" fill="#1565D8"/>
<path opacity="0.3" fill-rule="evenodd" clip-rule="evenodd" d="M10.4004 33.6C8.19125 33.6 6.40039 31.8091 6.40039 29.6C6.40039 27.3908 8.19125 25.6 10.4004 25.6C12.6095 25.6 14.4004 27.3908 14.4004 29.6C14.4004 31.8091 12.6095 33.6 10.4004 33.6Z" fill="#1565D8"/>
</svg>
