<svg width="28" height="29" viewBox="0 0 28 29" fill="none" xmlns="http://www.w3.org/2000/svg">
<path fill-rule="evenodd" clip-rule="evenodd" d="M7.37347 10.4667C12.3349 11.1657 16.2155 9.3603 18.9179 5.07463C18.9315 5.05315 18.9439 5.03112 18.9551 5.00864C19.9951 6.17701 20.6268 7.71572 20.6268 9.40173V11.8245C20.6268 14.273 19.282 16.4743 17.1973 17.621C16.9256 17.4326 16.5957 17.3222 16.2399 17.3222C15.312 17.3222 14.5599 18.0731 14.5599 18.9995C14.5599 19.9258 15.312 20.6768 16.2399 20.6768C16.7098 20.6768 17.1346 20.4842 17.4395 20.1737C16.9852 21.5985 15.6171 22.6336 13.9999 22.6336C12.0132 22.6336 10.4023 21.0715 10.3999 19.1437L10.9311 17.6896C8.77351 16.5637 7.37347 14.3228 7.37347 11.8245V10.4667V10.4667ZM7.3866 8.98181C7.60356 5.52359 10.4816 2.7858 14.0001 2.7858C15.4831 2.7858 16.8523 3.27214 17.9564 4.09378C17.9225 4.12862 17.8913 4.16809 17.8636 4.21206C15.4315 8.06912 11.9939 9.65275 7.45174 8.98763C7.42989 8.98443 7.40816 8.98251 7.3866 8.98181H7.3866ZM9.01657 19.8755C9.38242 22.228 11.4742 24.0313 13.9999 24.0313C16.5261 24.0313 18.6182 22.2273 18.9834 19.8741L21.6688 20.4147C22.7355 20.6225 23.5854 21.4278 23.849 22.4804L24.6234 25.573C24.7118 25.9259 24.4445 26.2677 24.0801 26.2677H3.92014C3.55582 26.2677 3.2885 25.9259 3.37686 25.573L4.15025 22.4844C4.41449 21.4292 5.26785 20.6228 6.33234 20.4184L9.01657 19.8755V19.8755Z" fill="#1565D8"/>
<path opacity="0.3" fill-rule="evenodd" clip-rule="evenodd" d="M16.2402 19.5586C16.5495 19.5586 16.8002 19.3083 16.8002 18.9995C16.8002 18.6907 16.5495 18.4404 16.2402 18.4404C15.9309 18.4404 15.6802 18.6907 15.6802 18.9995C15.6802 19.3083 15.9309 19.5586 16.2402 19.5586Z" fill="#1565D8"/>
<path opacity="0.3" fill-rule="evenodd" clip-rule="evenodd" d="M21.6796 8.37673H21.8401C22.7679 8.37673 23.5201 9.12767 23.5201 10.054V12.2904C23.5201 13.2167 22.7679 13.9677 21.8401 13.9677H21.4443C21.6424 13.2815 21.747 12.5614 21.747 11.8245V9.40173C21.747 9.05424 21.724 8.71209 21.6796 8.37673Z" fill="#1565D8"/>
<path opacity="0.3" fill-rule="evenodd" clip-rule="evenodd" d="M6.55625 13.9677H6.15998C5.23214 13.9677 4.47998 13.2167 4.47998 12.2904V10.054C4.47998 9.12767 5.23214 8.37673 6.15998 8.37673H6.32102C6.27654 8.71209 6.25359 9.05424 6.25359 9.40173V11.8245C6.25359 12.5614 6.3582 13.2815 6.55625 13.9677V13.9677Z" fill="#1565D8"/>
</svg>
