<svg width="28" height="29" viewBox="0 0 28 29" fill="none" xmlns="http://www.w3.org/2000/svg">
<path fill-rule="evenodd" clip-rule="evenodd" d="M8.04492 11.5231C9.51682 9.43482 10.4356 7.03853 10.8042 4.3257C10.8393 4.06727 11.0225 3.85238 11.274 3.77468C13.8088 2.9915 15.2499 4.23603 15.2261 7.07381C15.2215 7.62465 15.196 8.11427 15.1418 8.86311C15.0207 10.5358 15.0304 10.9922 15.2179 11.2994C15.3983 11.5946 15.9836 11.6954 17.368 11.433C17.8048 11.3502 18.2431 11.2563 18.7285 11.1436C18.9427 11.0938 20.486 10.7179 20.8805 10.6328C21.633 10.4706 22.173 10.402 22.6478 10.431C23.934 10.5098 24.6166 11.3366 24.7345 12.9207C24.9422 15.7103 24.3004 21.3137 23.6602 23.3776C23.0059 25.4867 21.8649 26.2828 19.126 26.3309C17.3651 26.3618 14.6568 26.3618 10.9885 26.3308C10.052 26.3091 9.20339 26.1281 8.44852 25.7896C8.66041 25.3515 8.77908 24.8609 8.77908 24.3428V13.6082C8.77908 12.8202 8.50452 12.0956 8.04492 11.5231Z" fill="#1565D8"/>
<path opacity="0.3" fill-rule="evenodd" clip-rule="evenodd" d="M4.03368 11.5955C2.91051 11.5955 2 12.4966 2 13.6082V24.3428C2 25.4544 2.91051 26.3555 4.03368 26.3555H5.38947C6.51265 26.3555 7.42316 25.4544 7.42316 24.3428V13.6082C7.42316 12.4966 6.51265 11.5955 5.38947 11.5955H4.03368Z" fill="#1565D8"/>
</svg>
