<svg width="28" height="29" viewBox="0 0 28 29" fill="none" xmlns="http://www.w3.org/2000/svg">
<path fill-rule="evenodd" clip-rule="evenodd" d="M8.2815 22C7.90426 20.9797 7.60449 19.8504 7.39548 18.6408C6.40312 17.8278 5.52576 16.9711 4.7822 16.0982C3.82451 17.7703 3.55319 19.3256 4.17018 20.4265C4.79878 21.5482 6.3107 22.0691 8.2815 22ZM9.06015 23.7481C6.05883 24.0128 3.63089 23.2155 2.54871 21.2846C1.50938 19.43 1.99428 16.9796 3.59969 14.5268C1.99427 12.0739 1.50938 9.62346 2.54871 7.76895C3.63089 5.83796 6.05883 5.04071 9.06015 5.30544C10.301 2.98002 12.0306 1.54782 14 1.54782C15.9694 1.54782 17.699 2.98002 18.9399 5.30545C21.9412 5.04071 24.3691 5.83796 25.4513 7.76895C26.4906 9.62346 26.0057 12.0739 24.4003 14.5267C26.0057 16.9796 26.4906 19.43 25.4513 21.2846C24.3691 23.2155 21.9412 24.0128 18.9399 23.7481C17.699 26.0735 15.9694 27.5057 14 27.5057C12.0306 27.5057 10.301 26.0735 9.06015 23.7481ZM23.2178 12.9553C24.1755 11.2832 24.4468 9.7279 23.8298 8.62697C23.2012 7.50535 21.6893 6.98443 19.7185 7.05346C20.0957 8.07377 20.3955 9.2031 20.6045 10.4127C21.5969 11.2257 22.4742 12.0824 23.2178 12.9553ZM17.0267 5.60191C16.1615 4.1953 15.1042 3.35883 14 3.35883C12.8958 3.35883 11.8385 4.1953 10.9733 5.60191C11.9509 5.81472 12.9671 6.12502 14 6.53078C15.0329 6.12502 16.0491 5.81472 17.0267 5.60191ZM16.381 7.6239C16.8852 7.47858 17.3782 7.36064 17.8555 7.27019C18.0463 7.74398 18.2197 8.2519 18.373 8.78885C18.1054 8.61592 17.8322 8.44644 17.5536 8.28077C17.1635 8.04874 16.7722 7.82974 16.381 7.6239ZM11.619 7.6239C11.1148 7.47859 10.6218 7.36064 10.1445 7.27019C9.95371 7.74398 9.7803 8.2519 9.62703 8.78885C9.89464 8.61592 10.1678 8.44644 10.4464 8.28077C10.8365 8.04874 11.2278 7.82974 11.619 7.6239ZM9.08109 11.3949C9.79976 10.8381 10.579 10.3054 11.4103 9.81094C12.2737 9.29742 13.143 8.85491 14 8.48388C14.857 8.85491 15.7263 9.29742 16.5897 9.81094C17.421 10.3054 18.2002 10.8381 18.9189 11.3949C19.059 12.3898 19.135 13.441 19.135 14.5268C19.135 15.6125 19.059 16.6637 18.9189 17.6586C18.2002 18.2154 17.421 18.7481 16.5897 19.2426C15.7263 19.7561 14.857 20.1986 14 20.5696C13.143 20.1986 12.2737 19.7561 11.4103 19.2426C10.579 18.7481 9.79976 18.2154 9.08109 17.6586C8.94098 16.6637 8.86499 15.6125 8.86499 14.5268C8.86499 13.441 8.94098 12.3898 9.08109 11.3949ZM7.39548 10.4127C7.60449 9.2031 7.90426 8.07377 8.28149 7.05346C6.3107 6.98442 4.79878 7.50535 4.17018 8.62697C3.55319 9.7279 3.82451 11.2832 4.7822 12.9553C5.52576 12.0824 6.40312 11.2257 7.39548 10.4127ZM5.85894 14.5268C6.22533 14.0662 6.63687 13.6048 7.08964 13.149C7.06515 13.6016 7.05263 14.0612 7.05263 14.5268C7.05263 14.9923 7.06515 15.4519 7.08964 15.9045C6.63687 15.4487 6.22533 14.9873 5.85894 14.5268ZM14 22.5227C15.0329 22.9285 16.0491 23.2388 17.0267 23.4516C16.1615 24.8582 15.1042 25.6947 14 25.6947C12.8958 25.6947 11.8385 24.8582 10.9733 23.4516C11.9509 23.2388 12.9671 22.9285 14 22.5227ZM11.619 21.4296C11.1148 21.5749 10.6218 21.6929 10.1445 21.7833C9.95371 21.3095 9.7803 20.8016 9.62703 20.2647C9.89464 20.4376 10.1678 20.6071 10.4464 20.7727C10.8365 21.0048 11.2278 21.2238 11.619 21.4296ZM16.381 21.4296C16.7722 21.2238 17.1635 21.0048 17.5536 20.7727C17.8322 20.6071 18.1054 20.4376 18.373 20.2647C18.2197 20.8016 18.0463 21.3095 17.8555 21.7833C17.3782 21.6929 16.8852 21.5749 16.381 21.4296ZM20.6045 18.6408C20.3955 19.8504 20.0957 20.9797 19.7185 22C21.6893 22.0691 23.2012 21.5482 23.8298 20.4265C24.4468 19.3256 24.1755 17.7703 23.2178 16.0982C22.4742 16.9711 21.5969 17.8278 20.6045 18.6408ZM20.9104 15.9045C21.3631 15.4487 21.7747 14.9873 22.1411 14.5268C21.7747 14.0662 21.3631 13.6048 20.9104 13.149C20.9349 13.6016 20.9474 14.0612 20.9474 14.5268C20.9474 14.9923 20.9349 15.4519 20.9104 15.9045Z" fill="#1565D8"/>
<path opacity="0.3" fill-rule="evenodd" clip-rule="evenodd" d="M14.0545 17.5884C12.3676 17.5884 11 16.2326 11 14.56C11 12.8875 12.3676 11.5316 14.0545 11.5316C15.7415 11.5316 17.1091 12.8875 17.1091 14.56C17.1091 16.2326 15.7415 17.5884 14.0545 17.5884Z" fill="#1565D8"/>
</svg>
