<svg width="28" height="29" viewBox="0 0 28 29" fill="none" xmlns="http://www.w3.org/2000/svg">
<path fill-rule="evenodd" clip-rule="evenodd" d="M24.2706 6.88749L14.1906 3.25339C14.0676 3.20908 13.9331 3.20908 13.8102 3.25339L3.73015 6.88749C3.50823 6.9675 3.36035 7.17779 3.36035 7.41335V14.9611C3.36035 20.8881 6.90585 24.8212 13.8552 26.6829C13.9515 26.7087 14.053 26.7084 14.1492 26.6819C21.0962 24.77 24.6404 20.8385 24.6404 14.9611V7.41335C24.6404 7.17779 24.4925 6.9675 24.2706 6.88749ZM10.1343 13.9831C10.3584 13.7703 10.7128 13.7791 10.926 14.0027L13.1914 16.3796L17.9486 11.2276C18.1582 11.0006 18.5125 10.9862 18.7399 11.1955C18.9673 11.4048 18.9817 11.7585 18.7721 11.9855L13.6096 17.5764C13.3902 17.814 13.0154 17.817 12.7922 17.5829L10.1147 14.7736C9.90147 14.5499 9.91027 14.196 10.1343 13.9831Z" fill="#1565D8"/>
</svg>
